<svg width="50" height="50" viewBox="0 0 50 50" fill="none" xmlns="http://www.w3.org/2000/svg">
<circle cx="25.0013" cy="25.4798" r="23.8372" fill="white" fill-opacity="0.05" stroke="url(#paint0_linear_136_2882)" stroke-width="1.16279"/>
<path d="M18.7906 13.6973H26.5982C27.3395 13.6973 27.9506 13.6973 28.4489 13.7378C28.9655 13.7807 29.4417 13.8715 29.8884 14.0986C30.5811 14.4515 31.1443 15.0147 31.4973 15.7075C31.7256 16.1542 31.8164 16.6303 31.8581 17.147C31.8986 17.6452 31.8986 18.2564 31.8986 18.9977V19.2198H32.3895C33.0068 19.2198 33.5161 19.2198 33.9321 19.248C34.3641 19.2775 34.7642 19.3413 35.1483 19.4996C35.5951 19.6846 36.0011 19.9559 36.3431 20.2978C36.6851 20.6398 36.9563 21.0458 37.1413 21.4926C37.3009 21.8767 37.3622 22.2768 37.3929 22.7076C37.4211 23.1248 37.4211 23.6341 37.4211 24.2502V24.314C37.4211 24.9301 37.4211 25.4394 37.3929 25.8554C37.3752 26.2535 37.297 26.6467 37.161 27.0213C36.4532 29.4337 35.1601 31.6339 33.3967 33.426C31.6333 35.2181 29.4543 36.5465 27.0535 37.2931L26.8216 37.3655C26.4452 37.5046 26.0493 37.5833 25.6484 37.5987C25.2311 37.6282 24.723 37.6282 24.107 37.6282H24.0431C23.4271 37.6282 22.9178 37.6282 22.5018 37.5999C22.0698 37.5705 21.6697 37.5067 21.2856 37.3484C20.8387 37.1633 20.4328 36.8921 20.0908 36.5501C19.7488 36.2081 19.4776 35.8022 19.2926 35.3553C19.133 34.9712 19.0717 34.5711 19.041 34.1404C19.0127 33.7231 19.0127 33.2138 19.0127 32.5978V32.1056H18.7918C18.0506 32.1056 17.4382 32.1056 16.94 32.0651C16.4233 32.0222 15.9471 31.9326 15.5004 31.7043C14.8077 31.3514 14.2445 30.7882 13.8915 30.0955C13.6645 29.6487 13.5725 29.1726 13.5307 28.6559C13.4902 28.1577 13.4902 27.5465 13.4902 26.8053V18.9977C13.4902 18.2564 13.4902 17.6452 13.5307 17.147C13.5737 16.6303 13.6645 16.1542 13.8915 15.7075C14.2445 15.0147 14.8077 14.4515 15.5004 14.0986C15.9471 13.8715 16.4233 13.7795 16.94 13.7378C17.4382 13.6973 18.0494 13.6973 18.7906 13.6973ZM20.8536 32.5659C20.8536 33.2212 20.8536 33.6679 20.8781 34.014C20.9002 34.3527 20.9432 34.5282 20.9935 34.6509C21.086 34.8743 21.2216 35.0773 21.3926 35.2483C21.5636 35.4193 21.7666 35.5549 21.99 35.6474C22.1127 35.6977 22.2882 35.7407 22.6269 35.7628C22.973 35.7873 23.4197 35.7873 24.0751 35.7873C24.7304 35.7873 25.1771 35.7873 25.5232 35.7628C25.8619 35.7407 26.0374 35.6977 26.1601 35.6474C26.3835 35.5549 26.5865 35.4193 26.7575 35.2483C26.9285 35.0773 27.0641 34.8743 27.1566 34.6509C27.2069 34.5282 27.2487 34.3527 27.272 34.014C27.2965 33.6679 27.2965 33.2212 27.2965 32.5659V32.5339C27.2965 31.9179 27.2965 31.4086 27.3247 30.9926C27.3542 30.5606 27.418 30.1605 27.5763 29.7764C27.7614 29.3296 28.0326 28.9236 28.3746 28.5816C28.7165 28.2396 29.1225 27.9684 29.5693 27.7834C29.9535 27.6238 30.3535 27.5625 30.7843 27.5318C31.2016 27.5036 31.7109 27.5036 32.3269 27.5036H32.3588C33.0142 27.5036 33.4609 27.5036 33.807 27.479C34.1457 27.4557 34.3212 27.414 34.4439 27.3636C34.6673 27.2711 34.8703 27.1355 35.0413 26.9645C35.2123 26.7935 35.3479 26.5906 35.4404 26.3671C35.4907 26.2444 35.5337 26.0689 35.5557 25.7302C35.5803 25.3841 35.5803 24.9374 35.5803 24.2821C35.5803 23.6267 35.5803 23.18 35.5557 22.834C35.5337 22.4952 35.4907 22.3198 35.4404 22.197C35.3479 21.9736 35.2123 21.7706 35.0413 21.5996C34.8703 21.4287 34.6673 21.293 34.4439 21.2005C34.3212 21.1502 34.1457 21.1073 33.807 21.0852C33.4609 21.0606 33.0142 21.0606 32.3588 21.0606H24.3512C23.5633 21.0606 23.0258 21.0606 22.6122 21.095C22.2084 21.1281 22.0023 21.1882 21.8587 21.2607C21.512 21.4372 21.2302 21.719 21.0536 22.0657C20.98 22.2093 20.9211 22.4155 20.8879 22.8192C20.8548 23.234 20.8536 23.7703 20.8536 24.5582V32.5659Z" fill="#7FCDD3" fill-opacity="0.64"/>
<defs>
<linearGradient id="paint0_linear_136_2882" x1="25.0013" y1="1.64258" x2="25.0013" y2="49.317" gradientUnits="userSpaceOnUse">
<stop stop-color="#7FCDD3"/>
<stop offset="1" stop-color="#426A6D" stop-opacity="0"/>
</linearGradient>
</defs>
</svg>
